<svg width="140" height="19" viewBox="0 0 140 19" fill="none" xmlns="http://www.w3.org/2000/svg">
<path d="M0 18.7035L6.37329 0.296488H9.92482L16.2981 18.7035H13.2331L11.8465 14.5774L8.25843 1.97917L4.4759 14.5774L3.06502 18.7035H0ZM5.30297 11.9831L8.25843 1.97917L10.9708 11.9831L7.75985 2.3472H8.56259L5.30297 11.9831Z" fill="#456FF6"/>
<path d="M23.1363 18.8518C21.7578 18.8518 20.6875 18.4564 19.9253 17.6658C19.1631 16.8752 18.782 15.7633 18.782 14.3303V7.85696H16.4711V5.3368H16.8359C17.4522 5.3368 17.9306 5.15561 18.2711 4.79324C18.6117 4.43086 18.782 3.93671 18.782 3.31079V2.27308H21.5308V5.3368H24.5228V7.85696H21.5308V14.2068C21.5308 14.668 21.6037 15.0633 21.7497 15.3927C21.8957 15.7057 22.1308 15.9528 22.4551 16.1339C22.7795 16.2987 23.2011 16.381 23.7201 16.381C23.8498 16.381 23.9958 16.3728 24.1579 16.3563C24.3201 16.3398 24.4742 16.3234 24.6201 16.3069V18.7035C24.3931 18.7365 24.1417 18.7694 23.866 18.8023C23.5903 18.8353 23.3471 18.8518 23.1363 18.8518Z" fill="#456FF6"/>
<path d="M32.9948 18.8518C31.6163 18.8518 30.546 18.4564 29.7838 17.6658C29.0216 16.8752 28.6405 15.7633 28.6405 14.3303V7.85696H26.3296V5.3368H26.6944C27.3107 5.3368 27.7891 5.15561 28.1296 4.79324C28.4702 4.43086 28.6405 3.93671 28.6405 3.31079V2.27308H31.3893V5.3368H34.3813V7.85696H31.3893V14.2068C31.3893 14.668 31.4622 15.0633 31.6082 15.3927C31.7542 15.7057 31.9893 15.9528 32.3136 16.1339C32.638 16.2987 33.0596 16.381 33.5786 16.381C33.7083 16.381 33.8543 16.3728 34.0164 16.3563C34.1786 16.3398 34.3327 16.3234 34.4786 16.3069V18.7035C34.2516 18.7365 34.0002 18.7694 33.7245 18.8023C33.4488 18.8353 33.2056 18.8518 32.9948 18.8518Z" fill="#456FF6"/>
<path d="M43.1022 19C41.7886 19 40.621 18.6953 39.5993 18.0858C38.5939 17.4599 37.8074 16.6199 37.2398 15.5657C36.6722 14.495 36.3884 13.3008 36.3884 11.9831C36.3884 10.6324 36.6722 9.43823 37.2398 8.40052C37.8236 7.36281 38.602 6.54746 39.575 5.95449C40.548 5.34504 41.6508 5.04031 42.8833 5.04031C43.8725 5.04031 44.7563 5.21326 45.5348 5.55917C46.3132 5.90507 46.97 6.38275 47.5051 6.9922C48.0403 7.58518 48.4457 8.26875 48.7214 9.04291C49.0133 9.81708 49.1593 10.6407 49.1593 11.5137C49.1593 11.7278 49.1512 11.9502 49.1349 12.1808C49.1187 12.4114 49.0863 12.6255 49.0376 12.8231H38.5533V10.5995H47.4808L46.1672 11.6125C46.3294 10.8054 46.2726 10.0889 45.997 9.46294C45.7375 8.82055 45.3321 8.31816 44.7807 7.95579C44.2455 7.57694 43.613 7.38752 42.8833 7.38752C42.1535 7.38752 41.5048 7.57694 40.9372 7.95579C40.3696 8.31816 39.9318 8.84525 39.6237 9.53706C39.3155 10.2124 39.1939 11.036 39.2588 12.0078C39.1777 12.9137 39.2993 13.7044 39.6237 14.3797C39.9642 15.055 40.4345 15.5821 41.0345 15.961C41.6508 16.3398 42.3481 16.5293 43.1265 16.5293C43.9212 16.5293 44.5942 16.3481 45.1456 15.9857C45.7132 15.6233 46.1591 15.1539 46.4835 14.5774L48.7214 15.6892C48.4619 16.3151 48.0565 16.8834 47.5051 17.394C46.97 17.8882 46.3213 18.2835 45.5591 18.58C44.8131 18.86 43.9942 19 43.1022 19Z" fill="#456FF6"/>
<path d="M51.8419 18.7035V5.3368H54.4691V7.95579L54.1529 7.60988C54.4772 6.76983 54.9961 6.13567 55.7097 5.70741C56.4232 5.26268 57.2503 5.04031 58.1909 5.04031C59.1639 5.04031 60.0234 5.25444 60.7694 5.6827C61.5154 6.11097 62.0992 6.70394 62.5208 7.46164C62.9425 8.21933 63.1533 9.09233 63.1533 10.0806V18.7035H60.4288V10.8218C60.4288 10.1465 60.3072 9.57824 60.064 9.11704C59.8207 8.63936 59.472 8.27698 59.018 8.02991C58.5801 7.76636 58.0774 7.63459 57.5098 7.63459C56.9422 7.63459 56.4314 7.76636 55.9773 8.02991C55.5394 8.27698 55.1989 8.63936 54.9556 9.11704C54.7123 9.59471 54.5907 10.163 54.5907 10.8218V18.7035H51.8419Z" fill="#456FF6"/>
<path d="M72.1766 19C70.9116 19 69.7764 18.6953 68.771 18.0858C67.7817 17.4599 66.9952 16.6199 66.4114 15.5657C65.8438 14.5115 65.56 13.3255 65.56 12.0078C65.56 10.6901 65.8519 9.50412 66.4357 8.44993C67.0195 7.39575 67.8061 6.56394 68.7953 5.95449C69.7846 5.34504 70.9035 5.04031 72.1522 5.04031C73.2063 5.04031 74.1388 5.25444 74.9497 5.6827C75.7605 6.11097 76.4011 6.70394 76.8714 7.46164L76.4579 8.10403V0H79.1823V18.7035H76.5795V15.9857L76.8957 16.5046C76.4416 17.3117 75.793 17.9293 74.9497 18.3576C74.1064 18.7859 73.182 19 72.1766 19ZM72.4441 16.4057C73.2063 16.4057 73.8875 16.2163 74.4875 15.8375C75.1037 15.4586 75.5821 14.9397 75.9227 14.2809C76.2795 13.6055 76.4579 12.8479 76.4579 12.0078C76.4579 11.1678 76.2795 10.4183 75.9227 9.75943C75.5821 9.10056 75.1037 8.58171 74.4875 8.20286C73.8875 7.82401 73.2063 7.63459 72.4441 7.63459C71.6819 7.63459 70.9927 7.82401 70.3765 8.20286C69.7602 8.58171 69.2818 9.10056 68.9413 9.75943C68.6007 10.4183 68.4304 11.1678 68.4304 12.0078C68.4304 12.8479 68.6007 13.6055 68.9413 14.2809C69.2818 14.9397 69.7521 15.4586 70.3521 15.8375C70.9684 16.2163 71.6657 16.4057 72.4441 16.4057Z" fill="#456FF6"/>
<path d="M86.9112 18.7035V0.296488H98.855V2.89077H89.7816V8.17815H98.3685V10.7724H89.7816V16.1092H98.855V18.7035H86.9112Z" fill="#456FF6"/>
<path d="M105.194 19C104.302 19 103.515 18.8435 102.834 18.5306C102.169 18.2011 101.651 17.7564 101.278 17.1964C100.905 16.6199 100.718 15.9445 100.718 15.1704C100.718 14.4456 100.872 13.795 101.18 13.2185C101.505 12.642 101.999 12.156 102.664 11.7607C103.329 11.3654 104.164 11.0854 105.17 10.9207L109.743 10.1547V12.3537L105.705 13.0702C104.975 13.202 104.44 13.4408 104.099 13.7867C103.759 14.1162 103.588 14.5444 103.588 15.0715C103.588 15.5821 103.775 16.0022 104.148 16.3316C104.537 16.6446 105.032 16.801 105.632 16.801C106.378 16.801 107.026 16.6363 107.578 16.3069C108.145 15.9775 108.583 15.541 108.891 14.9974C109.2 14.4374 109.354 13.8197 109.354 13.1443V9.71001C109.354 9.05115 109.11 8.51582 108.624 8.10403C108.154 7.67577 107.521 7.46164 106.726 7.46164C105.997 7.46164 105.356 7.6593 104.805 8.05462C104.27 8.43346 103.872 8.92761 103.613 9.53706L101.326 8.37581C101.569 7.71695 101.967 7.14044 102.518 6.64629C103.07 6.13567 103.71 5.74036 104.44 5.46034C105.186 5.18032 105.972 5.04031 106.799 5.04031C107.837 5.04031 108.754 5.23797 109.548 5.63329C110.359 6.02861 110.983 6.58041 111.421 7.28869C111.875 7.98049 112.102 8.7876 112.102 9.71001V18.7035H109.475V16.2822L110.035 16.3563C109.727 16.8999 109.329 17.3693 108.843 17.7646C108.372 18.1599 107.829 18.4647 107.213 18.6788C106.613 18.8929 105.94 19 105.194 19Z" fill="#456FF6"/>
<path d="M120.182 19C118.836 19 117.652 18.6623 116.63 17.987C115.625 17.3117 114.919 16.4057 114.514 15.2692L116.63 14.2562C116.987 15.0139 117.473 15.6151 118.09 16.0598C118.722 16.5046 119.419 16.7269 120.182 16.7269C120.83 16.7269 121.357 16.5787 121.763 16.2822C122.168 15.9857 122.371 15.5821 122.371 15.0715C122.371 14.7421 122.282 14.4785 122.103 14.2809C121.925 14.0668 121.698 13.8938 121.422 13.762C121.163 13.6303 120.895 13.5314 120.619 13.4655L118.552 12.8726C117.417 12.5431 116.565 12.049 115.998 11.3901C115.446 10.7148 115.17 9.93238 115.17 9.04291C115.17 8.2358 115.373 7.53576 115.779 6.94278C116.184 6.33333 116.744 5.86389 117.457 5.53446C118.171 5.20503 118.973 5.04031 119.865 5.04031C121.065 5.04031 122.136 5.34504 123.076 5.95449C124.017 6.54746 124.682 7.37928 125.071 8.44993L122.955 9.46294C122.695 8.82055 122.282 8.30993 121.714 7.93108C121.163 7.55223 120.538 7.36281 119.841 7.36281C119.241 7.36281 118.763 7.51105 118.406 7.80754C118.049 8.08756 117.871 8.45817 117.871 8.91938C117.871 9.23234 117.952 9.49588 118.114 9.71001C118.276 9.90767 118.487 10.0724 118.746 10.2042C119.006 10.3195 119.273 10.4183 119.549 10.5007L121.69 11.143C122.776 11.456 123.611 11.9502 124.195 12.6255C124.779 13.2844 125.071 14.075 125.071 14.9974C125.071 15.788 124.86 16.4881 124.438 17.0975C124.033 17.6905 123.465 18.1599 122.736 18.5059C122.006 18.8353 121.155 19 120.182 19Z" fill="#456FF6"/>
<path d="M133.943 19C132.629 19 131.462 18.6953 130.44 18.0858C129.435 17.4599 128.648 16.6199 128.08 15.5657C127.513 14.495 127.229 13.3008 127.229 11.9831C127.229 10.6324 127.513 9.43823 128.08 8.40052C128.664 7.36281 129.443 6.54746 130.416 5.95449C131.389 5.34504 132.492 5.04031 133.724 5.04031C134.713 5.04031 135.597 5.21326 136.376 5.55917C137.154 5.90507 137.811 6.38275 138.346 6.9922C138.881 7.58518 139.286 8.26875 139.562 9.04291C139.854 9.81708 140 10.6407 140 11.5137C140 11.7278 139.992 11.9502 139.976 12.1808C139.959 12.4114 139.927 12.6255 139.878 12.8231H129.394V10.5995H138.322L137.008 11.6125C137.17 10.8054 137.113 10.0889 136.838 9.46294C136.578 8.82055 136.173 8.31816 135.621 7.95579C135.086 7.57694 134.454 7.38752 133.724 7.38752C132.994 7.38752 132.346 7.57694 131.778 7.95579C131.21 8.31816 130.773 8.84525 130.464 9.53706C130.156 10.2124 130.035 11.036 130.099 12.0078C130.018 12.9137 130.14 13.7044 130.464 14.3797C130.805 15.055 131.275 15.5821 131.875 15.961C132.492 16.3398 133.189 16.5293 133.967 16.5293C134.762 16.5293 135.435 16.3481 135.986 15.9857C136.554 15.6233 137 15.1539 137.324 14.5774L139.562 15.6892C139.303 16.3151 138.897 16.8834 138.346 17.394C137.811 17.8882 137.162 18.2835 136.4 18.58C135.654 18.86 134.835 19 133.943 19Z" fill="#456FF6"/>
</svg>
